<svg id="visual" viewBox="0 0 900 600" width="900" height="600" xmlns="http://www.w3.org/2000/svg" xmlns:xlink="http://www.w3.org/1999/xlink" version="1.1"><path d="M0 115L21.5 111C43 107 86 99 128.8 97.7C171.7 96.3 214.3 101.7 257.2 111C300 120.3 343 133.7 385.8 142.7C428.7 151.7 471.3 156.3 514.2 149.8C557 143.3 600 125.7 642.8 114.3C685.7 103 728.3 98 771.2 103.7C814 109.3 857 125.7 878.5 133.8L900 142L900 0L878.5 0C857 0 814 0 771.2 0C728.3 0 685.7 0 642.8 0C600 0 557 0 514.2 0C471.3 0 428.7 0 385.8 0C343 0 300 0 257.2 0C214.3 0 171.7 0 128.8 0C86 0 43 0 21.5 0L0 0Z" fill="#6abeff" stroke-linecap="round" stroke-linejoin="miter"></path></svg>